<svg width="125" height="24" viewBox="0 0 125 24" fill="none" xmlns="http://www.w3.org/2000/svg">
<path d="M7.472 22.56C7.552 21.552 7.592 20.272 7.592 18.72V18.048C6.136 17.872 4.84 17.4 3.704 16.632C2.568 15.848 1.68 14.84 1.04 13.608C0.416 12.376 0.104 11 0.104 9.48C0.104 7.816 0.472 6.328 1.208 5.016C1.96 3.704 2.992 2.68 4.304 1.944C5.632 1.208 7.128 0.839999 8.792 0.839999C10.456 0.839999 11.944 1.208 13.256 1.944C14.584 2.68 15.616 3.704 16.352 5.016C17.104 6.328 17.48 7.816 17.48 9.48C17.48 10.984 17.168 12.352 16.544 13.584C15.936 14.816 15.072 15.824 13.952 16.608C12.832 17.376 11.552 17.848 10.112 18.024V20.832C10.464 20.832 11.072 20.784 11.936 20.688C12.816 20.592 13.416 20.504 13.736 20.424L13.832 20.568L13.28 22.8H7.472V22.56ZM8.792 15.96C9.912 15.96 10.912 15.688 11.792 15.144C12.672 14.6 13.36 13.84 13.856 12.864C14.352 11.888 14.6 10.784 14.6 9.552C14.6 8.304 14.352 7.192 13.856 6.216C13.36 5.24 12.672 4.48 11.792 3.936C10.912 3.392 9.912 3.12 8.792 3.12C7.672 3.12 6.672 3.392 5.792 3.936C4.912 4.48 4.224 5.24 3.728 6.216C3.232 7.192 2.984 8.304 2.984 9.552C2.984 10.784 3.232 11.888 3.728 12.864C4.224 13.84 4.912 14.6 5.792 15.144C6.672 15.688 7.672 15.96 8.792 15.96ZM26.1063 18.24C25.0663 18.24 24.1543 18.016 23.3703 17.568C22.6023 17.104 22.0103 16.448 21.5943 15.6C21.1783 14.752 20.9703 13.76 20.9703 12.624V7.824C20.6183 7.824 20.0743 7.92 19.3383 8.112L19.0263 8.184L18.9303 8.04L19.4103 6H21.4023C21.7063 6 22.0663 5.992 22.4823 5.976C22.8983 5.944 23.2023 5.912 23.3943 5.88L23.4183 6.048C23.3543 7.056 23.3223 8.4 23.3223 10.08V12.552C23.3223 13.624 23.6103 14.48 24.1863 15.12C24.7783 15.76 25.5623 16.08 26.5383 16.08C27.1463 16.08 27.6983 15.92 28.1943 15.6C28.6903 15.28 29.0743 14.84 29.3463 14.28C29.6343 13.72 29.7783 13.096 29.7783 12.408V9.672C29.7783 8.472 29.7383 7.32 29.6583 6.216V6H30.2343C30.5383 6 30.8983 5.992 31.3143 5.976C31.7303 5.944 32.0263 5.912 32.2023 5.88L32.2503 6.048C32.1703 7.296 32.1303 8.64 32.1303 10.08V16.176C32.4183 16.176 32.9463 16.08 33.7143 15.888C33.7783 15.872 33.8423 15.864 33.9063 15.864C33.9703 15.848 34.0343 15.832 34.0983 15.816L34.1703 15.96L33.7143 18H29.9943V17.76C30.0103 17.648 30.0183 17.536 30.0183 17.424C30.0183 17.296 30.0183 17.168 30.0183 17.04C30.0183 16.912 30.0183 16.792 30.0183 16.68C30.0343 16.568 30.0423 16.448 30.0423 16.32C29.6263 16.912 29.0743 17.384 28.3863 17.736C27.7143 18.072 26.9543 18.24 26.1063 18.24ZM44.0793 18.768L44.6313 17.376C44.5353 17.456 44.4233 17.536 44.2953 17.616C44.1673 17.68 44.0313 17.744 43.8873 17.808C43.5993 17.936 43.2713 18.04 42.9033 18.12C42.5353 18.2 42.1353 18.24 41.7033 18.24C40.5673 18.24 39.5353 17.984 38.6073 17.472C37.6953 16.944 36.9753 16.216 36.4473 15.288C35.9193 14.344 35.6553 13.272 35.6553 12.072C35.6553 10.856 35.9273 9.768 36.4713 8.808C37.0153 7.848 37.7593 7.104 38.7033 6.576C39.6633 6.032 40.7273 5.76 41.8953 5.76C43.0633 5.76 44.1033 6.024 45.0153 6.552C45.9273 7.08 46.6393 7.808 47.1513 8.736C47.6793 9.664 47.9433 10.72 47.9433 11.904C47.9433 12.08 47.9353 12.248 47.9193 12.408C47.9193 12.568 47.9113 12.728 47.8953 12.888H37.9833C38.0793 13.544 38.2953 14.128 38.6313 14.64C38.9673 15.152 39.3993 15.552 39.9273 15.84C40.4713 16.128 41.0873 16.272 41.7753 16.272C42.3833 16.272 42.9433 16.16 43.4553 15.936C43.9833 15.712 44.4233 15.424 44.7753 15.072C45.1273 14.704 45.3673 14.328 45.4953 13.944L45.5193 13.872L47.5353 14.376L46.2873 18.864H44.1753L44.0793 18.768ZM45.5193 10.992C45.4073 10.336 45.1833 9.768 44.8473 9.288C44.5273 8.808 44.1033 8.44 43.5753 8.184C43.0473 7.912 42.4473 7.776 41.7753 7.776C41.1033 7.776 40.4953 7.912 39.9513 8.184C39.4233 8.44 38.9913 8.816 38.6553 9.312C38.3193 9.792 38.1033 10.352 38.0073 10.992H45.5193ZM58.7859 10.416C58.4979 9.84 58.1299 9.352 57.6819 8.952C57.2499 8.536 56.7619 8.224 56.2179 8.016C55.6899 7.808 55.1459 7.704 54.5859 7.704C53.8819 7.704 53.3299 7.832 52.9299 8.088C52.5459 8.328 52.3539 8.648 52.3539 9.048C52.3539 9.416 52.4979 9.72 52.7859 9.96C53.0739 10.184 53.4259 10.368 53.8419 10.512C54.2579 10.656 54.8419 10.816 55.5939 10.992C55.6419 11.008 55.6899 11.024 55.7379 11.04C55.8019 11.04 55.8579 11.048 55.9059 11.064C55.9859 11.08 56.0579 11.096 56.1219 11.112C56.1859 11.128 56.2579 11.144 56.3379 11.16C57.3299 11.4 58.1379 11.656 58.7619 11.928C59.3859 12.184 59.8979 12.56 60.2979 13.056C60.6979 13.536 60.8979 14.168 60.8979 14.952C60.8979 16.056 60.4499 16.896 59.5539 17.472C58.6579 18.032 57.5619 18.312 56.2659 18.312C55.6739 18.312 55.1219 18.256 54.6099 18.144C54.1139 18.048 53.6579 17.912 53.2419 17.736C53.0979 17.672 52.9539 17.6 52.8099 17.52C52.6819 17.44 52.5619 17.36 52.4499 17.28L53.0019 18.768L52.9299 18.864H50.9139L49.6659 13.92L51.3219 13.416C51.6259 14.008 51.9939 14.528 52.4259 14.976C52.8739 15.424 53.4019 15.776 54.0099 16.032C54.6339 16.288 55.3459 16.416 56.1459 16.416C56.8659 16.416 57.4499 16.304 57.8979 16.08C58.3459 15.84 58.5699 15.512 58.5699 15.096C58.5699 14.728 58.4339 14.432 58.1619 14.208C57.9059 13.984 57.5539 13.8 57.1059 13.656C56.6739 13.512 56.0019 13.328 55.0899 13.104L54.9459 13.08C54.0179 12.856 53.2019 12.608 52.4979 12.336C51.8099 12.048 51.2339 11.648 50.7699 11.136C50.3059 10.624 50.0739 9.984 50.0739 9.216C50.0739 8.112 50.4899 7.264 51.3219 6.672C52.1539 6.064 53.1859 5.76 54.4179 5.76C54.9299 5.76 55.3939 5.8 55.8099 5.88C56.2419 5.944 56.6259 6.048 56.9619 6.192C57.0579 6.224 57.1539 6.264 57.2499 6.312C57.3459 6.344 57.4339 6.384 57.5139 6.432L57.0579 5.256L57.1539 5.136H59.2659L60.5379 9.888L58.7859 10.416ZM69.7426 18.72L70.2466 17.4C70.1666 17.48 70.0786 17.552 69.9826 17.616C69.8866 17.68 69.7826 17.736 69.6706 17.784C69.4466 17.928 69.1986 18.04 68.9266 18.12C68.6546 18.2 68.3666 18.24 68.0626 18.24C66.9106 18.24 66.0386 17.928 65.4466 17.304C64.8546 16.664 64.5586 15.744 64.5586 14.544V7.872H63.5986C63.4386 7.872 63.1826 7.904 62.8306 7.968C62.4786 8.016 62.1586 8.072 61.8706 8.136L61.6546 8.184L61.5826 8.04L62.0386 6L63.3826 6.024C63.7186 6.04 63.9986 6 64.2226 5.904C64.4466 5.808 64.6146 5.664 64.7266 5.472C64.8386 5.264 64.8946 5.008 64.8946 4.704V3.12C65.2626 3.12 65.6146 3.112 65.9506 3.096C66.3026 3.08 66.6226 3.064 66.9106 3.048V6H67.5586C68.0866 6 68.8866 5.968 69.9586 5.904C71.0306 5.824 71.7266 5.76 72.0466 5.712L72.1426 5.856L71.6626 7.872H66.9106V11.04C66.9106 11.472 66.9026 11.872 66.8866 12.24C66.8706 12.608 66.8466 12.944 66.8146 13.248C66.7986 13.456 66.7826 13.648 66.7666 13.824C66.7666 14 66.7666 14.176 66.7666 14.352C66.7666 14.976 66.9106 15.456 67.1986 15.792C67.5026 16.128 67.9106 16.296 68.4226 16.296C68.7586 16.296 69.0946 16.192 69.4306 15.984C69.7666 15.776 70.0706 15.512 70.3426 15.192C70.6146 14.872 70.8146 14.544 70.9426 14.208L71.0626 13.848L72.8146 14.208L71.9506 18.816H69.8386L69.7426 18.72ZM82.4431 19.224L83.2351 18H73.8511V17.76L81.2431 7.8H80.7871C79.5551 7.8 78.6271 7.84 78.0031 7.92C77.3951 8 76.9391 8.136 76.6351 8.328C76.3471 8.52 76.0911 8.808 75.8671 9.192C75.8671 9.192 75.8671 9.2 75.8671 9.216L75.5791 9.72L73.9951 9.192L75.4831 4.68H77.6191L77.6671 4.752L76.9231 6H81.5551C82.1311 6 82.7551 6 83.4271 6C84.1151 6 84.7231 5.984 85.2511 5.952V6.192L77.9791 16.104H79.0351C80.3311 16.104 81.2991 16.072 81.9391 16.008C82.5791 15.928 83.0591 15.784 83.3791 15.576C83.7151 15.368 83.9871 15.04 84.1951 14.592L84.5071 13.896L86.0191 14.4L84.4831 19.32H82.4911L82.4431 19.224ZM88.7304 17.76C88.7944 16.416 88.8264 15.136 88.8264 13.92V7.824C88.4904 7.824 87.9384 7.92 87.1704 8.112L86.8584 8.184L86.7864 8.04L87.2424 6H89.2344C89.5704 6 89.9384 5.992 90.3384 5.976C90.7384 5.944 91.0504 5.912 91.2744 5.88L91.2984 6.048C91.2184 7.296 91.1784 8.64 91.1784 10.08V16.176C91.3704 16.176 91.8744 16.088 92.6904 15.912L93.1224 15.816L93.1944 15.96L92.7384 18H88.7304V17.76ZM91.5864 0.119998L89.8104 4.44H89.5704L87.7944 0.119998H91.5864ZM109.55 15.96L109.07 18H105.038V17.76C105.102 16.752 105.134 15.472 105.134 13.92V11.592C105.134 10.456 104.838 9.56 104.246 8.904C103.67 8.232 102.894 7.896 101.918 7.896C101.31 7.896 100.758 8.056 100.262 8.376C99.7818 8.696 99.3978 9.144 99.1098 9.72C98.8378 10.28 98.7018 10.904 98.7018 11.592V13.92C98.7018 15.136 98.7338 16.416 98.7978 17.76V18H96.2538V17.76C96.3178 16.416 96.3498 15.136 96.3498 13.92V7.824C96.0138 7.824 95.4618 7.92 94.6938 8.112L94.3818 8.184L94.3098 8.04L94.7658 6H96.4698C96.7738 6 97.1258 5.992 97.5258 5.976C97.9418 5.944 98.2458 5.912 98.4378 5.88L98.4858 6.048C98.4698 6.32 98.4538 6.6 98.4378 6.888C98.4218 7.16 98.4058 7.44 98.3898 7.728C98.8218 7.12 99.3818 6.64 100.07 6.288C100.774 5.936 101.558 5.76 102.422 5.76C103.446 5.76 104.342 5.992 105.11 6.456C105.878 6.904 106.47 7.552 106.886 8.4C107.302 9.248 107.51 10.232 107.51 11.352V16.176C107.734 16.176 108.286 16.08 109.166 15.888C109.214 15.872 109.262 15.864 109.31 15.864C109.358 15.848 109.406 15.832 109.454 15.816L109.55 15.96ZM118.187 23.04C116.811 23.04 115.619 22.888 114.611 22.584C113.619 22.28 112.859 21.832 112.331 21.24C111.803 20.664 111.539 19.976 111.539 19.176C111.539 18.584 111.715 18.048 112.067 17.568C112.435 17.072 112.947 16.696 113.603 16.44C112.563 16.232 111.739 15.88 111.131 15.384C110.539 14.872 110.243 14.232 110.243 13.464C110.243 12.952 110.363 12.52 110.603 12.168C110.843 11.816 111.131 11.552 111.467 11.376C111.819 11.2 112.147 11.112 112.451 11.112C112.499 11.112 112.539 11.112 112.571 11.112C112.619 11.112 112.667 11.112 112.715 11.112C112.459 10.744 112.331 10.288 112.331 9.744C112.331 8.672 112.755 7.8 113.603 7.128C114.451 6.44 115.627 6.016 117.131 5.856V4.224C116.779 4.224 116.235 4.32 115.499 4.512L115.187 4.584L115.091 4.44L115.571 2.4H117.563C117.883 2.4 118.235 2.392 118.619 2.376C119.003 2.344 119.307 2.312 119.531 2.28L119.579 2.448C119.499 3.44 119.459 4.56 119.459 5.808C120.515 5.872 121.427 6.08 122.195 6.432C122.979 6.768 123.579 7.216 123.995 7.776C124.411 8.336 124.619 8.992 124.619 9.744C124.619 10.544 124.355 11.248 123.827 11.856C123.299 12.448 122.563 12.904 121.619 13.224C120.691 13.544 119.643 13.704 118.475 13.704C117.819 13.704 117.259 13.672 116.795 13.608C116.331 13.544 115.955 13.472 115.667 13.392C115.395 13.296 115.099 13.184 114.779 13.056C114.443 12.928 114.179 12.84 113.987 12.792C113.811 12.744 113.587 12.72 113.315 12.72C113.059 12.72 112.843 12.784 112.667 12.912C112.507 13.04 112.427 13.192 112.427 13.368C112.427 13.8 112.643 14.128 113.075 14.352C113.507 14.576 114.059 14.736 114.731 14.832C115.419 14.912 116.387 14.984 117.635 15.048C117.859 15.064 118.083 15.08 118.307 15.096C118.547 15.096 118.787 15.104 119.027 15.12C120.803 15.2 122.227 15.584 123.299 16.272C124.387 16.944 124.931 17.872 124.931 19.056C124.931 19.872 124.651 20.576 124.091 21.168C123.547 21.776 122.763 22.24 121.739 22.56C120.731 22.88 119.547 23.04 118.187 23.04ZM118.235 21C119.099 21 119.851 20.92 120.491 20.76C121.147 20.6 121.651 20.368 122.003 20.064C122.355 19.776 122.531 19.44 122.531 19.056C122.531 18.656 122.355 18.304 122.003 18C121.651 17.712 121.147 17.488 120.491 17.328C119.851 17.168 119.099 17.088 118.235 17.088C117.371 17.088 116.611 17.168 115.955 17.328C115.315 17.488 114.819 17.712 114.467 18C114.115 18.304 113.939 18.656 113.939 19.056C113.939 19.44 114.115 19.776 114.467 20.064C114.819 20.368 115.315 20.6 115.955 20.76C116.611 20.92 117.371 21 118.235 21ZM118.451 11.832C119.635 11.832 120.547 11.648 121.187 11.28C121.843 10.912 122.171 10.4 122.171 9.744C122.171 9.072 121.843 8.552 121.187 8.184C120.547 7.816 119.635 7.632 118.451 7.632C117.267 7.632 116.347 7.816 115.691 8.184C115.051 8.552 114.731 9.072 114.731 9.744C114.731 10.4 115.051 10.912 115.691 11.28C116.347 11.648 117.267 11.832 118.451 11.832Z" fill="#36C591"/>
</svg>
